<svg preserveAspectRatio="none" width="100%" height="100%" overflow="visible" style="display: block;" viewBox="0 0 48 48" fill="none" xmlns="http://www.w3.org/2000/svg">
<rect width="48" height="48" rx="11.52" fill="var(--fill-0, white)" fill-opacity="0.2"/>
<g transform="translate(4, 4)">
<path d="M23.4412 9.82189H16.5603C16.0841 9.82189 15.7031 9.44094 15.7031 8.96475C15.7031 8.48856 16.0841 8.0957 16.5603 8.0957H23.4412C23.9174 8.0957 24.2983 8.47666 24.2983 8.95285C24.2983 9.42904 23.9174 9.82189 23.4412 9.82189Z" fill="var(--fill-0, white)"/>
<path d="M22.3811 29.4861V25.9861C22.3811 23.8313 23.8335 22.379 25.9883 22.379H29.4883C29.7621 22.379 30.024 22.4028 30.274 22.4504C30.2978 22.1647 30.3216 21.879 30.3216 21.5813C30.3216 15.879 25.6906 11.248 20.0002 11.248C14.3097 11.248 9.67871 15.879 9.67871 21.5813C9.67871 27.2718 14.3097 31.9028 20.0002 31.9028C21.0121 31.9028 21.9764 31.7361 22.9049 31.4742C22.5716 30.9147 22.3811 30.248 22.3811 29.4861ZM20.893 21.1885C20.893 21.6766 20.4883 22.0813 20.0002 22.0813C19.5121 22.0813 19.1073 21.6766 19.1073 21.1885V15.2361C19.1073 14.748 19.5121 14.3433 20.0002 14.3433C20.4883 14.3433 20.893 14.748 20.893 15.2361V21.1885Z" fill="var(--fill-0, white)"/>
<path d="M29.488 23.5723H25.9999C24.4761 23.5723 23.5713 24.477 23.5713 25.9889V29.4889C23.5713 31.0008 24.4761 31.9056 25.9999 31.9056H29.488C30.9999 31.9056 31.9046 31.0008 31.9046 29.4889V25.9889C31.9046 24.477 30.9999 23.5723 29.488 23.5723ZM27.0475 29.5961C27.0475 29.977 26.738 30.2866 26.3451 30.2866C25.9641 30.2866 25.6546 29.977 25.6546 29.5961V25.8818C25.6546 25.5008 25.9641 25.1913 26.3451 25.1913C26.738 25.1913 27.0475 25.5008 27.0475 25.8818V29.5961ZM29.8213 29.5961C29.8213 29.977 29.5118 30.2866 29.1308 30.2866C28.7499 30.2866 28.4284 29.977 28.4284 29.5961V25.8818C28.4284 25.5008 28.7499 25.1913 29.1308 25.1913C29.5118 25.1913 29.8213 25.5008 29.8213 25.8818V29.5961Z" fill="var(--fill-0, white)"/>
</g>
</svg>
